<?xml version="1.0" encoding="UTF-8" ?>
<!DOCTYPE svg PUBLIC "-//W3C//DTD SVG 1.1//EN" "http://www.w3.org/Graphics/SVG/1.1/DTD/svg11.dtd">
<svg width="512pt" height="512pt" viewBox="0 0 512 512" version="1.1" xmlns="http://www.w3.org/2000/svg">
<path fill="#2582d3" opacity="1.00" d=" M 0.00 0.00 L 512.00 0.00 L 512.00 512.00 L 0.00 512.00 L 0.00 0.00 M 189.63 131.48 C 189.84 140.58 189.70 149.69 189.71 158.79 C 183.90 160.49 178.25 162.74 173.00 165.75 C 166.66 159.18 160.01 152.92 153.76 146.27 C 144.55 155.19 135.69 164.46 126.47 173.35 C 132.86 179.97 139.48 186.38 145.94 192.93 C 142.68 198.07 140.95 204.01 138.70 209.54 C 129.63 209.68 120.55 209.58 111.48 209.57 C 111.42 221.03 111.52 232.50 111.44 243.96 C 111.65 245.28 110.98 246.97 111.87 248.08 C 120.92 248.37 130.00 248.05 139.06 248.23 C 140.58 254.08 143.12 259.57 145.88 264.92 C 139.26 271.21 133.03 277.89 126.39 284.15 C 134.74 292.65 143.26 300.99 151.62 309.48 C 152.36 310.15 153.52 311.74 154.52 310.47 C 160.68 304.32 166.87 298.19 172.97 291.98 C 178.30 294.69 183.74 297.34 189.61 298.69 C 189.92 307.86 189.60 317.04 189.77 326.22 C 195.62 326.25 201.48 326.22 207.34 326.25 C 207.33 302.71 207.35 279.17 207.36 255.63 C 204.92 255.02 202.45 254.51 200.04 253.76 C 190.12 250.30 182.82 240.46 182.51 229.94 C 182.00 220.23 187.41 210.55 195.87 205.81 C 204.84 200.54 216.92 201.33 225.10 207.77 C 231.13 212.21 234.65 219.35 235.61 226.68 C 259.24 226.80 282.87 226.61 306.50 226.73 C 306.56 221.01 306.56 215.28 306.52 209.56 C 297.40 209.67 288.28 209.52 279.16 209.65 C 277.32 203.88 275.19 198.17 272.12 192.93 C 278.54 186.34 285.19 179.97 291.57 173.34 C 282.29 164.48 273.52 155.10 264.21 146.28 C 258.00 152.97 251.31 159.18 244.99 165.76 C 239.77 162.68 234.07 160.52 228.28 158.77 C 228.39 149.66 228.19 140.55 228.40 131.44 C 215.48 131.25 202.54 131.18 189.63 131.48 M 211.58 230.86 C 211.55 234.20 211.53 237.54 211.60 240.88 C 274.98 240.74 338.36 240.84 401.74 240.83 C 401.77 237.57 401.71 234.31 401.76 231.05 C 388.86 230.62 375.94 230.99 363.03 230.87 C 312.55 230.88 262.06 230.87 211.58 230.86 M 211.50 246.44 C 211.63 291.46 211.54 336.48 211.55 381.49 C 274.89 381.54 338.23 381.36 401.56 381.59 C 401.94 336.53 401.62 291.46 401.72 246.39 C 338.31 246.45 274.91 246.36 211.50 246.44 Z" />
<path fill="#f7fafd" opacity="1.00" d=" M 189.63 131.48 C 202.54 131.18 215.48 131.25 228.40 131.44 C 228.19 140.55 228.39 149.66 228.28 158.77 C 234.07 160.52 239.77 162.68 244.99 165.76 C 251.31 159.18 258.00 152.97 264.21 146.28 C 273.52 155.10 282.29 164.48 291.57 173.34 C 285.19 179.97 278.54 186.34 272.12 192.93 C 275.19 198.17 277.32 203.88 279.16 209.65 C 288.28 209.52 297.40 209.67 306.52 209.56 C 306.56 215.28 306.56 221.01 306.50 226.73 C 282.87 226.61 259.24 226.80 235.61 226.68 C 234.65 219.35 231.13 212.21 225.10 207.77 C 216.92 201.33 204.84 200.54 195.87 205.81 C 187.41 210.55 182.00 220.23 182.51 229.94 C 182.82 240.46 190.12 250.30 200.04 253.76 C 202.45 254.51 204.92 255.02 207.36 255.63 C 207.35 279.17 207.33 302.71 207.34 326.25 C 201.48 326.22 195.62 326.25 189.77 326.22 C 189.60 317.04 189.92 307.86 189.61 298.69 C 183.74 297.34 178.30 294.69 172.97 291.98 C 166.87 298.19 160.68 304.32 154.52 310.47 C 153.52 311.74 152.36 310.15 151.62 309.48 C 143.26 300.99 134.74 292.65 126.39 284.15 C 133.03 277.89 139.26 271.21 145.88 264.92 C 143.12 259.57 140.58 254.08 139.06 248.23 C 130.00 248.05 120.92 248.37 111.87 248.08 C 110.98 246.97 111.65 245.28 111.44 243.96 C 111.52 232.50 111.42 221.03 111.48 209.57 C 120.55 209.58 129.63 209.68 138.70 209.54 C 140.95 204.01 142.68 198.07 145.94 192.93 C 139.48 186.38 132.86 179.97 126.47 173.35 C 135.69 164.46 144.55 155.19 153.76 146.27 C 160.01 152.92 166.66 159.18 173.00 165.75 C 178.25 162.74 183.90 160.49 189.71 158.79 C 189.70 149.69 189.84 140.58 189.63 131.48 Z" />
<path fill="#f7fafd" opacity="1.00" d=" M 211.58 230.86 C 262.06 230.87 312.55 230.88 363.03 230.87 C 375.94 230.99 388.86 230.62 401.76 231.05 C 401.71 234.31 401.77 237.57 401.74 240.83 C 338.36 240.84 274.98 240.74 211.60 240.88 C 211.53 237.54 211.55 234.20 211.58 230.86 Z" />
<path fill="#f7fafd" opacity="1.00" d=" M 211.50 246.44 C 274.91 246.36 338.31 246.45 401.72 246.39 C 401.62 291.46 401.94 336.53 401.56 381.59 C 338.23 381.36 274.89 381.54 211.55 381.49 C 211.54 336.48 211.63 291.46 211.50 246.44 M 236.23 256.82 C 236.18 260.89 236.25 264.95 236.18 269.02 C 260.12 269.36 284.09 269.07 308.04 269.16 C 330.97 269.06 353.91 269.37 376.83 269.01 C 376.74 264.96 376.81 260.91 376.76 256.86 C 329.92 256.77 283.07 256.85 236.23 256.82 M 253.63 303.85 C 249.55 300.87 246.43 296.75 242.24 293.91 C 240.32 296.30 238.19 298.52 236.15 300.81 C 242.19 305.89 247.66 311.61 253.75 316.64 C 263.99 305.61 275.10 295.39 285.40 284.41 C 283.22 282.38 281.11 280.28 279.01 278.18 C 270.58 286.76 261.92 295.13 253.63 303.85 M 285.88 297.54 C 285.97 302.63 285.72 307.74 286.03 312.83 C 316.23 312.80 346.43 312.80 376.63 312.83 C 376.60 307.70 376.68 302.56 376.58 297.44 C 346.35 297.59 316.11 297.38 285.88 297.54 M 253.30 352.65 C 250.65 349.96 247.78 347.51 245.05 344.92 C 244.09 344.33 243.39 342.72 242.08 343.12 C 240.02 345.07 238.27 347.34 236.19 349.28 C 241.39 354.60 247.12 359.37 252.51 364.49 C 253.54 365.82 254.75 364.28 255.51 363.53 C 265.24 353.54 275.28 343.85 284.94 333.79 C 284.13 330.92 280.84 329.29 278.95 327.03 C 270.41 335.58 262.00 344.28 253.30 352.65 M 285.75 346.14 C 285.56 351.36 285.71 356.59 285.67 361.82 C 316.05 361.83 346.43 361.80 376.81 361.84 C 376.79 356.62 376.79 351.41 376.81 346.19 C 346.46 346.18 316.10 346.29 285.75 346.14 Z" />
<path fill="#2582d3" opacity="1.00" d=" M 236.23 256.82 C 283.07 256.85 329.92 256.77 376.76 256.86 C 376.81 260.91 376.74 264.96 376.83 269.01 C 353.91 269.37 330.97 269.06 308.04 269.16 C 284.09 269.07 260.12 269.36 236.18 269.02 C 236.25 264.95 236.18 260.89 236.23 256.82 Z" />
<path fill="#2582d3" opacity="1.00" d=" M 253.63 303.85 C 261.92 295.13 270.58 286.76 279.01 278.18 C 281.11 280.28 283.22 282.38 285.40 284.41 C 275.10 295.39 263.99 305.61 253.75 316.64 C 247.66 311.61 242.19 305.89 236.15 300.81 C 238.19 298.52 240.32 296.30 242.24 293.91 C 246.43 296.75 249.55 300.87 253.63 303.85 Z" />
<path fill="#2582d3" opacity="1.00" d=" M 285.88 297.54 C 316.11 297.38 346.35 297.59 376.58 297.44 C 376.68 302.56 376.60 307.70 376.63 312.83 C 346.43 312.80 316.23 312.80 286.03 312.83 C 285.72 307.74 285.97 302.63 285.88 297.54 Z" />
<path fill="#2582d3" opacity="1.00" d=" M 253.30 352.65 C 262.00 344.28 270.41 335.58 278.95 327.03 C 280.84 329.29 284.13 330.92 284.94 333.79 C 275.28 343.85 265.24 353.54 255.51 363.53 C 254.75 364.28 253.54 365.82 252.51 364.49 C 247.12 359.37 241.39 354.60 236.19 349.28 C 238.27 347.34 240.02 345.07 242.08 343.12 C 243.39 342.72 244.09 344.33 245.05 344.92 C 247.78 347.51 250.65 349.96 253.30 352.65 Z" />
<path fill="#2582d3" opacity="1.00" d=" M 285.75 346.14 C 316.10 346.29 346.46 346.18 376.81 346.19 C 376.79 351.41 376.79 356.62 376.81 361.84 C 346.43 361.80 316.05 361.83 285.67 361.82 C 285.71 356.59 285.56 351.36 285.75 346.14 Z" />
</svg>
