<?xml version="1.0" encoding="UTF-8" ?>
<!DOCTYPE svg PUBLIC "-//W3C//DTD SVG 1.1//EN" "http://www.w3.org/Graphics/SVG/1.1/DTD/svg11.dtd">
<svg width="512pt" height="512pt" viewBox="0 0 512 512" version="1.1" xmlns="http://www.w3.org/2000/svg">
<path fill="#00a8ec" opacity="1.00" d=" M 0.00 0.00 L 512.00 0.00 L 512.00 512.00 L 0.00 512.00 L 0.00 0.00 Z" />
<path fill="#ffffff" opacity="1.00" d=" M 240.45 123.67 C 268.41 120.30 297.40 126.22 321.83 140.20 C 345.34 153.59 364.62 174.30 376.25 198.73 C 385.61 218.33 390.01 240.28 389.05 261.97 C 387.90 287.27 379.44 312.19 364.72 332.82 C 348.53 355.73 324.98 373.39 298.34 382.25 C 272.15 391.11 243.20 391.45 216.79 383.28 C 187.21 374.29 161.16 354.47 144.32 328.58 C 130.25 307.16 122.82 281.59 122.71 256.01 C 122.77 226.54 132.74 197.13 151.04 173.98 C 172.60 146.21 205.49 127.58 240.45 123.67 Z" />
<path fill="#00a8ec" opacity="1.00" d=" M 201.40 150.94 C 216.26 143.08 232.84 138.88 249.55 137.62 C 250.08 141.69 249.15 145.89 250.17 149.87 C 252.00 154.91 259.95 154.92 261.76 149.86 C 262.76 145.92 261.98 141.75 262.26 137.72 C 279.05 138.70 295.64 143.16 310.57 150.94 C 308.58 153.68 307.46 158.01 310.90 160.15 C 314.51 162.50 318.25 159.49 319.72 156.15 C 334.08 165.54 346.45 177.87 355.80 192.25 C 353.75 193.64 350.69 195.06 351.10 198.08 C 350.75 200.51 352.67 202.62 354.90 203.24 C 357.14 203.72 359.09 202.28 361.04 201.43 C 368.86 216.27 372.95 232.79 374.39 249.44 C 370.58 250.07 366.71 249.41 362.89 249.88 C 358.52 250.90 356.63 256.90 359.81 260.15 C 363.53 264.25 369.92 260.86 374.20 262.78 C 373.12 279.38 368.68 295.76 361.03 310.56 C 358.75 309.37 355.90 307.52 353.43 309.37 C 350.93 310.68 350.53 314.02 351.61 316.38 C 352.70 317.83 354.36 318.69 355.78 319.78 C 346.38 334.09 334.07 346.38 319.77 355.79 C 318.25 353.85 316.98 350.74 313.99 351.10 C 311.49 350.70 309.28 352.64 308.66 354.96 C 308.13 357.20 309.69 359.10 310.56 361.03 C 295.62 368.78 279.06 373.16 262.29 374.27 C 261.97 370.25 262.71 366.13 261.82 362.19 C 260.16 357.39 252.84 356.86 250.53 361.38 C 248.74 365.45 250.36 370.10 249.45 374.39 C 232.79 372.92 216.26 368.87 201.41 361.03 C 202.59 358.73 204.38 355.86 202.56 353.39 C 201.25 350.90 197.94 350.58 195.58 351.57 C 194.10 352.64 193.28 354.34 192.24 355.79 C 177.87 346.45 165.57 334.09 156.16 319.78 C 158.08 318.25 161.19 316.96 160.87 313.98 C 161.26 311.53 159.33 309.37 157.09 308.70 C 154.82 308.11 152.88 309.68 150.93 310.56 C 143.32 295.61 138.34 279.05 138.05 262.21 C 141.96 262.02 146.01 262.73 149.84 261.77 C 154.97 259.97 154.90 251.86 149.76 250.12 C 145.94 249.25 141.94 249.90 138.04 249.72 C 138.36 232.91 143.28 216.34 150.93 201.43 C 153.80 203.53 158.53 204.38 160.43 200.59 C 162.29 196.93 159.31 193.69 156.14 192.25 C 165.49 177.86 177.87 165.51 192.25 156.14 C 193.66 158.15 195.00 161.22 197.97 160.87 C 201.17 161.37 203.96 157.98 203.26 154.92 C 202.77 153.54 202.06 152.25 201.40 150.94 Z" />
<path fill="#ffffff" opacity="1.00" d=" M 250.64 166.93 C 250.57 163.48 254.72 160.59 257.91 162.16 C 259.77 162.92 261.36 164.85 261.33 166.91 C 261.40 193.09 261.26 219.27 261.40 245.45 C 264.49 247.73 267.70 250.80 267.73 254.94 C 268.51 261.21 263.30 267.40 257.00 267.73 C 252.75 268.10 247.99 266.10 245.97 262.21 C 230.31 262.10 214.63 262.21 198.97 262.16 C 196.43 262.11 193.46 261.13 192.37 258.63 C 191.08 256.54 192.01 254.04 193.14 252.11 C 194.70 249.96 197.65 249.80 200.08 249.77 C 215.37 249.81 230.65 249.72 245.94 249.80 C 247.29 248.06 248.84 246.48 250.62 245.16 C 250.66 219.09 250.62 193.01 250.64 166.93 Z" />
</svg>
