<?xml version="1.0" encoding="UTF-8" ?>
<!DOCTYPE svg PUBLIC "-//W3C//DTD SVG 1.1//EN" "http://www.w3.org/Graphics/SVG/1.1/DTD/svg11.dtd">
<svg width="512pt" height="512pt" viewBox="0 0 512 512" version="1.1" xmlns="http://www.w3.org/2000/svg">
<path fill="#00acdc" opacity="1.00" d=" M 0.00 0.00 L 512.00 0.00 L 512.00 512.00 L 0.00 512.00 L 0.00 0.00 Z" />
<path fill="#ffffff" opacity="1.00" d=" M 234.20 113.60 C 249.69 113.61 265.19 113.75 280.69 113.74 C 280.80 123.86 280.62 133.98 280.62 144.10 C 294.72 146.99 308.24 152.72 320.16 160.77 C 327.35 153.71 334.44 146.55 341.70 139.57 C 352.68 150.70 363.72 161.77 374.65 172.95 C 367.41 179.94 360.24 187.00 353.06 194.04 C 360.69 206.15 366.48 219.56 369.00 233.69 C 379.12 233.70 389.23 234.13 399.35 234.20 C 399.28 249.69 399.19 265.18 399.19 280.66 C 389.07 280.84 378.94 280.63 368.82 280.62 C 365.82 294.70 360.12 308.21 352.11 320.17 C 359.19 327.21 366.06 334.45 373.23 341.40 C 362.62 352.94 350.94 363.46 339.96 374.65 C 332.84 367.55 325.77 360.40 318.88 353.09 C 307.56 360.13 295.21 365.63 282.16 368.45 C 280.91 368.89 278.44 368.84 278.86 370.87 C 278.70 380.36 278.88 389.86 278.73 399.36 C 264.83 399.30 250.93 399.21 237.03 399.22 C 235.22 399.16 233.43 398.89 231.64 398.66 C 232.32 388.73 232.29 378.78 232.28 368.83 C 218.19 365.85 204.66 360.20 192.73 352.14 C 185.52 359.18 178.46 366.36 171.14 373.29 C 160.17 362.18 149.17 351.11 138.22 339.98 C 145.35 332.88 152.45 325.74 159.76 318.82 C 152.26 306.78 146.24 293.49 144.04 279.40 C 133.96 278.14 123.74 279.12 113.61 278.76 C 113.62 263.77 113.69 248.77 113.76 233.78 C 113.41 231.28 116.43 231.75 118.00 231.78 C 126.68 232.49 135.40 232.20 144.10 232.28 C 146.95 218.18 152.66 204.63 160.76 192.74 C 153.69 185.55 146.54 178.44 139.55 171.17 C 150.74 160.26 161.74 149.15 172.93 138.23 C 180.02 145.36 187.06 152.53 194.02 159.79 C 206.09 152.22 219.46 146.28 233.59 143.98 C 233.85 133.86 233.94 123.73 234.20 113.60 Z" />
<path fill="#00acdc" opacity="1.00" d=" M 245.55 172.81 C 264.97 170.11 285.24 174.78 301.73 185.32 C 318.98 196.21 331.94 213.62 337.53 233.23 C 342.30 250.01 341.81 268.30 335.86 284.72 C 329.65 302.30 317.43 317.70 301.62 327.61 C 283.57 339.27 260.92 343.39 239.88 339.14 C 223.96 335.96 208.97 328.10 197.44 316.66 C 183.68 303.33 174.75 285.11 172.64 266.07 C 170.19 246.35 175.34 225.88 186.42 209.42 C 199.65 189.48 221.80 175.76 245.55 172.81 Z" />
</svg>
