<?xml version="1.0" encoding="UTF-8" ?>
<!DOCTYPE svg PUBLIC "-//W3C//DTD SVG 1.1//EN" "http://www.w3.org/Graphics/SVG/1.1/DTD/svg11.dtd">
<svg width="512pt" height="512pt" viewBox="0 0 512 512" version="1.1" xmlns="http://www.w3.org/2000/svg">
<path fill="#a43ae3" opacity="1.00" d=" M 0.00 0.00 L 512.00 0.00 L 512.00 512.00 L 0.00 512.00 L 0.00 0.00 Z" />
<path fill="#ffffff" opacity="1.00" d=" M 270.47 145.35 C 310.70 145.44 350.94 145.15 391.17 145.50 C 393.43 155.25 395.99 164.93 398.56 174.61 C 353.38 174.76 308.19 174.68 263.01 174.66 C 265.42 164.87 267.93 155.10 270.47 145.35 Z" />
<path fill="#ffffff" opacity="1.00" d=" M 101.30 184.48 C 103.44 183.71 105.74 183.55 108.00 183.53 C 206.98 183.57 305.96 183.54 404.93 183.55 C 412.79 183.13 421.01 189.72 420.59 197.93 C 420.57 249.63 420.58 301.33 420.58 353.02 C 420.74 360.18 414.06 366.55 407.02 366.66 C 306.67 366.69 206.32 366.65 105.97 366.68 C 98.18 367.08 90.91 359.85 91.41 352.03 C 91.44 300.69 91.41 249.34 91.43 197.99 C 91.21 191.92 95.76 186.48 101.30 184.48 Z" />
<path fill="#a43ae3" opacity="1.00" d=" M 197.08 212.29 C 198.70 211.88 200.39 211.91 202.06 211.88 C 268.39 211.96 334.72 211.88 401.06 211.92 C 404.12 211.50 407.48 213.61 407.14 217.00 C 407.15 260.68 407.19 304.37 407.13 348.05 C 407.29 350.75 404.76 353.09 402.07 352.63 C 334.39 352.61 266.70 352.61 199.02 352.63 C 196.35 353.05 193.82 350.71 194.18 348.00 C 194.15 304.33 194.17 260.66 194.17 216.99 C 193.93 214.97 195.12 212.92 197.08 212.29 Z" />
<path fill="#ffffff" opacity="1.00" d=" M 334.15 226.61 C 347.63 222.66 363.04 228.50 370.77 240.16 C 377.07 249.33 378.38 261.68 373.96 271.91 C 371.24 278.78 365.92 284.31 359.75 288.23 C 368.64 290.58 377.84 293.90 384.13 300.94 C 387.45 304.42 389.33 309.17 389.25 313.99 C 389.21 321.32 389.27 328.65 389.22 335.99 C 389.39 337.77 388.06 339.82 386.09 339.59 C 357.37 339.65 328.63 339.61 299.91 339.61 C 297.86 339.94 296.17 337.97 296.44 336.01 C 296.40 328.31 296.40 320.61 296.45 312.91 C 296.47 307.09 299.93 301.87 304.26 298.23 C 310.50 292.94 318.38 290.15 326.22 288.20 C 316.90 282.79 310.41 272.84 309.48 262.09 C 307.72 246.33 318.79 230.45 334.15 226.61 Z" />
<path fill="#a43ae3" opacity="1.00" d=" M 336.22 232.20 C 344.55 230.12 353.80 232.11 360.44 237.59 C 371.84 246.49 373.92 264.64 364.84 275.89 C 356.42 287.36 338.76 290.08 327.24 281.75 C 317.17 275.04 312.77 261.40 316.81 250.03 C 319.75 241.34 327.30 234.38 336.22 232.20 Z" />
<path fill="#a43ae3" opacity="1.00" d=" M 311.51 300.45 C 320.91 294.66 332.18 292.79 343.07 292.64 C 353.92 292.85 365.15 294.79 374.47 300.66 C 379.09 303.55 383.40 308.24 383.22 314.04 C 383.25 320.51 383.20 326.98 383.22 333.46 C 356.31 333.53 329.40 333.48 302.49 333.48 C 302.54 326.67 302.40 319.85 302.53 313.04 C 302.68 307.47 307.08 303.23 311.51 300.45 Z" />
</svg>
