<?xml version="1.0" encoding="UTF-8" ?>
<!DOCTYPE svg PUBLIC "-//W3C//DTD SVG 1.1//EN" "http://www.w3.org/Graphics/SVG/1.1/DTD/svg11.dtd">
<svg width="512pt" height="512pt" viewBox="0 0 512 512" version="1.1" xmlns="http://www.w3.org/2000/svg">
<path fill="#438bfb" opacity="1.00" d=" M 0.00 0.00 L 512.00 0.00 L 512.00 512.00 L 0.00 512.00 L 0.00 0.00 Z" />
<path fill="#ffffff" opacity="1.00" d=" M 119.75 126.04 C 120.46 116.30 130.15 107.70 140.00 108.66 C 218.33 108.71 296.66 108.66 374.98 108.68 C 384.98 109.33 393.48 119.05 393.13 129.04 C 393.11 195.68 393.11 262.32 393.13 328.97 C 393.41 339.38 384.34 348.80 374.11 349.64 C 325.99 349.72 277.87 349.39 229.76 349.71 C 220.07 357.27 210.88 365.57 201.34 373.37 C 188.70 383.97 175.89 394.37 163.33 405.07 C 163.22 386.60 163.31 368.13 163.28 349.66 C 155.51 349.52 147.73 349.75 139.96 349.65 C 130.18 349.98 120.75 341.73 119.77 332.03 C 119.72 263.37 119.76 194.71 119.75 126.04 Z" />
<path fill="#438bfb" opacity="1.00" d=" M 157.71 132.91 C 159.19 131.53 160.70 129.63 162.95 129.74 C 181.65 129.72 200.35 129.73 219.05 129.74 C 221.01 129.60 222.21 131.45 223.61 132.51 C 223.53 154.09 223.52 175.66 223.61 197.23 C 215.51 203.73 207.02 209.72 198.77 216.01 C 212.45 247.13 238.45 272.30 269.22 286.50 C 275.38 278.23 281.15 269.64 287.87 261.81 C 293.22 261.53 298.56 262.59 303.90 261.94 C 308.93 261.39 313.95 262.34 318.97 262.02 C 324.32 261.42 329.67 262.39 335.03 261.93 C 341.51 262.95 348.10 260.82 354.51 262.49 C 355.09 283.58 354.63 304.70 354.75 325.80 C 353.86 326.46 353.04 327.25 352.04 327.74 C 336.82 328.46 321.51 327.13 306.65 323.68 C 273.46 316.18 242.03 300.18 217.12 276.89 C 178.24 240.10 156.25 186.37 157.71 132.91 Z" />
</svg>
