<?xml version="1.0" encoding="UTF-8" ?>
<!DOCTYPE svg PUBLIC "-//W3C//DTD SVG 1.1//EN" "http://www.w3.org/Graphics/SVG/1.1/DTD/svg11.dtd">
<svg width="512pt" height="512pt" viewBox="0 0 512 512" version="1.1" xmlns="http://www.w3.org/2000/svg">
<path fill="#ffffff" opacity="1.00" d=" M 247.60 110.83 C 253.64 109.87 259.73 109.88 265.78 110.76 C 265.81 125.51 265.67 140.26 265.79 155.01 C 265.69 159.14 268.79 163.09 272.95 163.62 C 277.92 164.61 282.98 159.98 282.54 154.96 C 282.49 142.46 282.62 129.96 282.47 117.46 C 295.51 125.78 304.21 140.56 304.54 156.09 C 304.58 186.71 304.53 217.33 304.56 247.94 C 304.75 259.29 300.67 270.68 293.21 279.24 C 285.76 288.02 275.06 293.96 263.66 295.61 C 245.88 298.43 226.98 289.90 217.05 274.92 C 211.52 267.07 209.00 257.46 208.84 247.94 C 208.83 219.29 208.85 190.65 208.83 162.00 C 208.68 154.61 209.43 147.05 212.32 140.18 C 215.90 130.92 222.68 123.22 230.78 117.60 C 230.97 130.10 230.70 142.60 230.90 155.09 C 230.73 159.18 233.79 163.07 237.89 163.61 C 242.82 164.63 247.97 160.09 247.57 155.08 C 247.60 140.33 247.54 125.58 247.60 110.83 Z" />
<path fill="#ffffff" opacity="1.00" d=" M 177.25 247.84 C 177.60 243.04 182.08 238.88 186.96 239.36 C 191.88 239.42 196.05 244.10 195.56 249.01 C 195.62 263.87 201.38 278.58 211.49 289.48 C 221.28 300.16 234.90 307.44 249.34 309.06 C 261.66 310.56 274.47 308.34 285.40 302.41 C 300.10 294.73 311.37 280.78 315.76 264.79 C 317.61 258.74 317.93 252.39 318.35 246.12 C 319.55 241.14 325.40 237.97 330.24 239.83 C 333.10 240.85 335.45 243.40 336.04 246.41 C 336.77 263.90 331.13 281.54 320.62 295.54 C 309.16 310.95 292.06 322.18 273.18 325.97 C 273.10 340.98 273.17 355.98 273.14 370.98 C 273.08 374.80 273.44 378.65 272.71 382.43 C 281.17 383.17 289.70 382.39 298.18 382.80 C 301.64 383.24 304.80 385.81 305.65 389.24 C 307.59 394.64 302.78 401.11 297.04 400.82 C 270.34 400.85 243.63 400.82 216.93 400.84 C 212.06 401.17 207.38 396.98 207.58 392.02 C 207.33 387.35 211.31 382.89 216.02 382.76 C 224.19 382.62 232.38 382.79 240.56 382.69 C 240.60 363.90 240.67 345.09 240.55 326.32 C 228.49 323.11 216.63 318.18 206.96 310.07 C 188.21 295.31 177.04 271.66 177.25 247.84 Z" />
</svg>
