<?xml version="1.0" encoding="UTF-8" ?>
<!DOCTYPE svg PUBLIC "-//W3C//DTD SVG 1.1//EN" "http://www.w3.org/Graphics/SVG/1.1/DTD/svg11.dtd">
<svg width="512pt" height="512pt" viewBox="0 0 512 512" version="1.1" xmlns="http://www.w3.org/2000/svg">
<path fill="#5a9139" opacity="1.00" d=" M 0.00 0.00 L 512.00 0.00 L 512.00 512.00 L 0.00 512.00 L 0.00 0.00 Z" />
<path fill="#ffffff" opacity="1.00" d=" M 189.42 147.41 C 210.04 133.25 235.01 125.68 259.99 125.68 C 292.05 125.64 323.84 138.52 346.82 160.88 C 341.57 163.45 336.93 167.29 333.65 172.14 C 323.55 163.46 312.43 155.76 299.95 150.92 C 271.02 139.18 236.98 140.89 209.46 155.68 C 191.83 164.98 176.96 179.34 166.85 196.51 C 161.32 193.71 155.07 192.56 148.90 192.66 C 158.63 174.68 172.45 158.86 189.42 147.41 Z" />
<path fill="#ffffff" opacity="1.00" d=" M 356.19 164.14 C 370.04 160.88 385.31 169.83 389.31 183.47 C 394.16 197.22 386.35 213.81 372.66 218.82 C 360.03 224.24 343.97 218.73 337.31 206.73 C 332.26 198.35 332.01 187.27 336.74 178.70 C 340.64 171.28 347.96 165.80 356.19 164.14 Z" />
<path fill="#ffffff" opacity="1.00" d=" M 146.73 199.19 C 156.39 197.60 166.61 201.59 172.85 209.09 C 180.25 217.81 181.70 231.06 176.12 241.08 C 171.83 249.36 163.21 255.06 153.97 256.09 C 138.60 258.18 123.26 245.59 122.28 230.09 C 120.62 215.45 132.06 200.86 146.73 199.19 Z" />
<path fill="#ffffff" opacity="1.00" d=" M 365.09 226.94 C 370.88 226.34 376.58 224.52 381.35 221.12 C 386.97 244.08 385.99 268.72 378.40 291.12 C 368.55 320.99 346.73 346.35 319.22 361.43 C 319.53 355.16 318.46 348.78 315.77 343.08 C 334.99 331.46 350.41 313.60 359.08 292.87 C 368.08 272.23 369.39 248.88 365.09 226.94 Z" />
<path fill="#ffffff" opacity="1.00" d=" M 134.63 258.35 C 140.13 261.34 146.44 262.61 152.67 262.41 C 155.13 285.55 165.25 307.81 181.28 324.70 C 198.93 343.83 223.76 355.81 249.60 358.44 C 249.48 364.72 251.35 370.91 254.53 376.30 C 235.02 375.15 215.70 369.96 198.66 360.30 C 171.98 345.39 151.04 320.43 141.35 291.41 C 137.57 280.76 135.83 269.54 134.63 258.35 Z" />
<path fill="#ffffff" opacity="1.00" d=" M 276.45 330.79 C 291.42 325.89 308.89 336.16 312.20 351.49 C 316.54 366.64 305.57 383.78 290.09 386.44 C 281.35 388.23 271.86 385.74 265.25 379.72 C 257.58 372.98 254.00 361.88 256.48 351.96 C 258.55 341.91 266.60 333.54 276.45 330.79 Z" />
</svg>
